# Blender v2.68 (sub 0) OBJ File: 'models.blend'
# www.blender.org
mtllib level.mtl
o Cube.004_Cube.009
v -2.000000 0.000000 -1.000000
v -2.000000 0.000000 -2.000000
v -1.000000 0.000000 -2.000000
v -1.000000 0.000000 -1.000000
v -2.000000 3.000000 -1.000000
v -2.000000 3.000000 -2.000000
v -1.000000 3.000000 -2.000000
v -1.000000 3.000000 -1.000000
v 1.000000 0.000000 -1.000000
v 1.000000 0.000000 -2.000000
v 2.000000 0.000000 -2.000000
v 2.000000 0.000000 -1.000000
v 1.000000 3.000000 -1.000000
v 1.000000 3.000000 -2.000000
v 2.000000 3.000000 -2.000000
v 2.000000 3.000000 -1.000000
v -2.000000 0.000000 2.000000
v -2.000000 0.000000 1.000000
v -1.000000 0.000000 1.000000
v -1.000000 0.000000 2.000000
v -2.000000 3.000000 2.000000
v -2.000000 3.000000 1.000000
v -1.000000 3.000000 1.000000
v -1.000000 3.000000 2.000000
v 1.000000 0.000000 2.000000
v 1.000000 0.000000 1.000000
v 2.000000 0.000000 1.000000
v 2.000000 0.000000 2.000000
v 1.000000 3.000000 2.000000
v 1.000000 3.000000 1.000000
v 2.000000 3.000000 1.000000
v 2.000000 3.000000 2.000000
v -5.000000 0.000000 -1.000000
v -5.000000 0.000000 -2.000000
v -4.000000 0.000000 -2.000000
v -4.000000 0.000000 -1.000000
v -5.000000 3.000000 -1.000000
v -5.000000 3.000000 -2.000000
v -4.000000 3.000000 -2.000000
v -4.000000 3.000000 -1.000000
v -5.000000 0.000000 2.000000
v -5.000000 0.000000 1.000000
v -4.000000 0.000000 1.000000
v -4.000000 0.000000 2.000000
v -5.000000 3.000000 2.000000
v -5.000000 3.000000 1.000000
v -4.000000 3.000000 1.000000
v -4.000000 3.000000 2.000000
v 4.000000 0.000000 -1.000000
v 4.000000 0.000000 -2.000000
v 5.000000 0.000000 -2.000000
v 5.000000 0.000000 -1.000000
v 4.000000 3.000000 -1.000000
v 4.000000 3.000000 -2.000000
v 5.000000 3.000000 -2.000000
v 5.000000 3.000000 -1.000000
v 4.000000 0.000000 2.000000
v 4.000000 0.000000 1.000000
v 5.000000 0.000000 1.000000
v 5.000000 0.000000 2.000000
v 4.000000 3.000000 2.000000
v 4.000000 3.000000 1.000000
v 5.000000 3.000000 1.000000
v 5.000000 3.000000 2.000000
vt 0.000100 0.000100
vt 0.999900 0.000100
vt 0.000100 0.999900
vt 0.999900 0.999900
vn -1.000000 0.000000 0.000000
vn 0.000000 0.000000 -1.000000
vn 1.000000 -0.000000 0.000000
vn 0.000000 -0.000000 1.000000
vn -0.000000 -1.000000 0.000000
vn -0.000000 1.000000 0.000000
usemtl None
s off
f 5/1/1 6/2/1 1/3/1
f 6/1/2 7/2/2 2/3/2
f 7/4/3 8/3/3 3/2/3
f 8/4/4 5/3/4 4/2/4
f 1/3/5 2/1/5 4/4/5
f 8/2/6 7/4/6 5/1/6
f 13/1/1 14/2/1 9/3/1
f 14/1/2 15/2/2 10/3/2
f 15/4/3 16/3/3 11/2/3
f 16/4/4 13/3/4 12/2/4
f 9/3/5 10/1/5 12/4/5
f 16/2/6 15/4/6 13/1/6
f 21/1/1 22/2/1 17/3/1
f 22/1/2 23/2/2 18/3/2
f 23/4/3 24/3/3 19/2/3
f 24/4/4 21/3/4 20/2/4
f 17/3/5 18/1/5 20/4/5
f 24/2/6 23/4/6 21/1/6
f 29/1/1 30/2/1 25/3/1
f 30/1/2 31/2/2 26/3/2
f 31/4/3 32/3/3 27/2/3
f 32/4/4 29/3/4 28/2/4
f 25/3/5 26/1/5 28/4/5
f 32/2/6 31/4/6 29/1/6
f 37/1/1 38/2/1 33/3/1
f 38/1/2 39/2/2 34/3/2
f 39/4/3 40/3/3 35/2/3
f 40/4/4 37/3/4 36/2/4
f 33/3/5 34/1/5 36/4/5
f 40/2/6 39/4/6 37/1/6
f 45/1/1 46/2/1 41/3/1
f 46/1/2 47/2/2 42/3/2
f 47/4/3 48/3/3 43/2/3
f 48/4/4 45/3/4 44/2/4
f 41/3/5 42/1/5 44/4/5
f 48/2/6 47/4/6 45/1/6
f 53/1/1 54/2/1 49/3/1
f 54/1/2 55/2/2 50/3/2
f 55/4/3 56/3/3 51/2/3
f 56/4/4 53/3/4 52/2/4
f 49/3/5 50/1/5 52/4/5
f 56/2/6 55/4/6 53/1/6
f 61/1/1 62/2/1 57/3/1
f 62/1/2 63/2/2 58/3/2
f 63/4/3 64/3/3 59/2/3
f 64/4/4 61/3/4 60/2/4
f 57/3/5 58/1/5 60/4/5
f 64/2/6 63/4/6 61/1/6
f 6/2/1 2/4/1 1/3/1
f 7/2/2 3/4/2 2/3/2
f 8/3/3 4/1/3 3/2/3
f 5/3/4 1/1/4 4/2/4
f 2/1/5 3/2/5 4/4/5
f 7/4/6 6/3/6 5/1/6
f 14/2/1 10/4/1 9/3/1
f 15/2/2 11/4/2 10/3/2
f 16/3/3 12/1/3 11/2/3
f 13/3/4 9/1/4 12/2/4
f 10/1/5 11/2/5 12/4/5
f 15/4/6 14/3/6 13/1/6
f 22/2/1 18/4/1 17/3/1
f 23/2/2 19/4/2 18/3/2
f 24/3/3 20/1/3 19/2/3
f 21/3/4 17/1/4 20/2/4
f 18/1/5 19/2/5 20/4/5
f 23/4/6 22/3/6 21/1/6
f 30/2/1 26/4/1 25/3/1
f 31/2/2 27/4/2 26/3/2
f 32/3/3 28/1/3 27/2/3
f 29/3/4 25/1/4 28/2/4
f 26/1/5 27/2/5 28/4/5
f 31/4/6 30/3/6 29/1/6
f 38/2/1 34/4/1 33/3/1
f 39/2/2 35/4/2 34/3/2
f 40/3/3 36/1/3 35/2/3
f 37/3/4 33/1/4 36/2/4
f 34/1/5 35/2/5 36/4/5
f 39/4/6 38/3/6 37/1/6
f 46/2/1 42/4/1 41/3/1
f 47/2/2 43/4/2 42/3/2
f 48/3/3 44/1/3 43/2/3
f 45/3/4 41/1/4 44/2/4
f 42/1/5 43/2/5 44/4/5
f 47/4/6 46/3/6 45/1/6
f 54/2/1 50/4/1 49/3/1
f 55/2/2 51/4/2 50/3/2
f 56/3/3 52/1/3 51/2/3
f 53/3/4 49/1/4 52/2/4
f 50/1/5 51/2/5 52/4/5
f 55/4/6 54/3/6 53/1/6
f 62/2/1 58/4/1 57/3/1
f 63/2/2 59/4/2 58/3/2
f 64/3/3 60/1/3 59/2/3
f 61/3/4 57/1/4 60/2/4
f 58/1/5 59/2/5 60/4/5
f 63/4/6 62/3/6 61/1/6
