# Blender v2.68 (sub 0) OBJ File: 'test_level.blend'
# www.blender.org
mtllib cinder_block.mtl
o Cube
v 0.364238 0.011275 -0.728476
v 0.364238 0.011275 0.728476
v -0.364238 0.011275 0.728476
v -0.364238 0.011275 -0.728476
v 0.364238 0.561256 -0.728475
v 0.364238 0.561256 0.728476
v -0.364238 0.561256 0.728475
v -0.364238 0.561256 -0.728476
v 0.364238 0.011275 0.000000
v -0.364238 0.011275 -0.000000
v 0.364238 0.561256 0.000000
v -0.364238 0.561256 -0.000000
v 0.364238 0.106916 0.655628
v 0.364238 0.465615 0.655629
v 0.364238 0.106916 0.053415
v 0.364238 0.465615 0.053415
v 0.364238 0.106916 -0.655628
v 0.364238 0.465615 -0.655628
v 0.364238 0.106916 -0.053415
v 0.364238 0.465615 -0.053414
v -0.364238 0.106916 -0.655628
v -0.364238 0.465615 -0.655628
v -0.364238 0.106916 -0.053415
v -0.364238 0.465615 -0.053415
v -0.364238 0.106916 0.655628
v -0.364238 0.465615 0.655628
v -0.364238 0.106916 0.053415
v -0.364238 0.465615 0.053415
v 0.352214 0.005166 -0.736138
v -0.352213 0.005166 -0.736138
v 0.352213 0.005166 0.736138
v -0.352214 0.005166 0.736138
v 0.352214 0.567364 -0.736138
v -0.352213 0.567364 -0.736138
v 0.352213 0.567364 0.736138
v -0.352214 0.567364 0.736138
v 0.352214 0.005166 -0.000000
v -0.352213 0.005166 -0.000000
v -0.352214 0.567364 0.000000
v 0.352213 0.567364 0.000000
v 0.341252 0.111590 -0.059304
v -0.341252 0.111590 -0.059304
v 0.341252 0.111590 -0.649022
v -0.341252 0.111590 -0.649022
v 0.341252 0.460940 -0.649022
v -0.341252 0.460940 -0.649022
v 0.341252 0.460940 -0.059304
v -0.341252 0.460940 -0.059304
v 0.341252 0.111590 0.649022
v -0.341252 0.111590 0.649022
v 0.341251 0.460940 0.649022
v -0.341252 0.460940 0.649022
v 0.341252 0.460940 0.059304
v -0.341252 0.460940 0.059304
v 0.341252 0.111590 0.059304
v -0.341252 0.111590 0.059304
vt 0.814723 0.074992
vt 0.636280 0.074998
vt 0.814723 0.071722
vt 0.321552 0.074997
vt 0.321552 0.071727
vt 0.499997 0.074999
vt 0.716666 0.795360
vt 0.717524 0.939863
vt 0.703428 0.817831
vt 0.634799 0.071542
vt 0.426993 0.938776
vt 0.244721 0.938777
vt 0.257880 0.916293
vt 0.143099 0.074993
vt 0.006814 0.074993
vt 0.141618 0.071536
vt 0.993186 0.074986
vt 0.144957 0.071724
vt 0.899198 0.794183
vt 0.899058 0.939853
vt 0.880571 0.817081
vt 0.061590 0.937857
vt 0.232523 0.917352
vt 0.226653 0.910668
vt 0.080337 0.913555
vt 0.534202 0.794836
vt 0.534202 0.938416
vt 0.553038 0.914142
vt 0.705375 0.918380
vt 0.222948 0.823920
vt 0.230290 0.816916
vt 0.730634 0.916916
vt 0.728852 0.816402
vt 0.699518 0.911672
vt 0.426579 0.795349
vt 0.407833 0.819652
vt 0.243449 0.794432
vt 0.255646 0.815857
vt 0.087154 0.908363
vt 0.083784 0.822617
vt 0.061180 0.794430
vt 0.734772 0.822765
vt 0.873728 0.822551
vt 0.876426 0.912386
vt 0.261517 0.822541
vt 0.737974 0.909560
vt 0.814731 0.249026
vt 0.638139 0.249029
vt 0.636281 0.245760
vt 0.814731 0.245757
vt 0.321547 0.249028
vt 0.321547 0.245758
vt 0.499997 0.245760
vt 0.634801 0.249216
vt 0.501478 0.249217
vt 0.141618 0.249212
vt 0.008295 0.249213
vt 0.143099 0.245756
vt 0.006814 0.245756
vt 0.991329 0.249024
vt 0.993186 0.245755
vt 0.144957 0.249026
vt 0.265223 0.909289
vt 0.409632 0.915393
vt 0.273592 0.296484
vt 0.273592 0.464170
vt 0.128702 0.296484
vt 0.404388 0.910590
vt 0.128702 0.464170
vt 0.042869 0.296484
vt 0.881687 0.916956
vt 0.359425 0.464170
vt 0.359424 0.296484
vt 0.504314 0.464170
vt 0.696058 0.824821
vt 0.551514 0.818294
vt 0.431212 0.544071
vt 0.431212 0.711757
vt 0.286323 0.544071
vt 0.517045 0.544071
vt 0.517045 0.711757
vt 0.078540 0.817814
vt 0.055600 0.711757
vt 0.055600 0.544071
vt 0.200490 0.711757
vt 0.556749 0.823117
vt 0.286323 0.711757
vt 0.638138 0.071728
vt 0.498139 0.071729
vt 0.501477 0.071542
vt 0.008295 0.071537
vt 0.991328 0.071715
vt 0.559877 0.908964
vt 0.401016 0.824844
vt 0.498139 0.249031
vt 0.042869 0.464170
vt 0.504314 0.296484
vt 0.200490 0.544071
vn -0.452921 -0.891550 -0.000000
vn -0.452924 0.891549 -0.000000
vn 1.000000 0.000000 0.000000
vn -0.537412 -0.000000 0.843320
vn -1.000000 -0.000000 -0.000000
vn -0.537397 0.000000 -0.843329
vn -0.452918 0.891552 -0.000000
vn -1.000000 -0.000001 -0.000000
vn -0.199281 0.979942 -0.000000
vn 1.000000 0.000000 -0.000001
vn -0.248189 -0.000000 0.968711
vn 0.199281 -0.979942 0.000000
vn -0.276213 -0.000000 -0.961096
vn 0.199282 0.979942 -0.000000
vn 0.276216 -0.000001 0.961096
vn -0.199281 -0.979942 -0.000000
vn 0.248188 0.000001 -0.968712
vn 0.452920 -0.891551 0.000000
vn 0.000000 -1.000000 0.000000
vn 0.452922 0.891550 0.000000
vn -0.000000 1.000000 0.000000
vn 0.537403 -0.000000 0.843326
vn -0.000000 -0.000000 1.000000
vn 0.537420 0.000000 -0.843315
vn 0.000000 0.000001 -1.000000
vn 0.452929 -0.891547 0.000000
vn 0.452928 0.891547 0.000000
vn -0.199281 0.979943 -0.000000
vn -0.276221 -0.000000 0.961094
vn -0.248181 0.000000 -0.968714
vn 0.000000 0.000000 -1.000000
vn 0.199281 0.979942 0.000000
vn 0.248181 -0.000001 0.968714
vn 0.276220 0.000001 -0.961095
vn -0.452926 -0.891548 -0.000000
vn -0.452931 0.891545 -0.000000
vn -0.537429 0.000000 0.843309
vn -0.537398 0.000000 -0.843329
vn -0.452919 -0.891552 -0.000000
vn 1.000000 0.000001 0.000001
vn 1.000000 -0.000001 0.000000
vn -0.248186 -0.000000 0.968712
vn 0.199279 -0.979943 0.000000
vn -1.000000 -0.000000 0.000001
vn -0.276212 -0.000000 -0.961097
vn -1.000000 -0.000000 -0.000001
vn 0.276215 -0.000001 0.961096
vn -0.199280 -0.979943 -0.000000
vn 0.452925 -0.891549 0.000000
vn 0.452913 0.891555 0.000000
vn 0.537389 0.000000 0.843334
vn 0.537417 0.000000 -0.843317
vn -0.199280 0.979943 -0.000000
vn -0.000000 -0.000001 1.000000
vn 0.199282 -0.979942 0.000000
vn -0.248182 0.000000 -0.968713
vn 0.248183 -0.000000 0.968713
vn -0.199284 -0.979942 -0.000000
vn 0.276224 0.000001 -0.961093
usemtl CinderBlockMat
s off
f 38/1/1 32/2/1 10/3/1
f 39/4/2 12/5/2 36/6/2
f 9/7/3 11/8/3 15/9/3
f 32/2/4 36/6/4 3/10/4
f 4/11/5 10/12/5 23/13/5
f 34/14/6 30/15/6 8/16/6
f 30/17/1 38/1/1 10/3/1
f 34/14/7 8/18/7 12/5/7
f 1/19/3 5/20/3 17/21/3
f 10/12/8 3/22/8 27/23/8
f 56/24/9 27/23/9 25/25/9
f 2/26/3 9/7/3 15/9/3
f 6/27/10 2/26/10 14/28/10
f 11/8/3 6/27/3 16/29/3
f 54/30/11 28/31/11 56/24/11
f 5/20/3 11/8/3 20/32/3
f 11/8/3 9/7/3 20/32/3
f 9/7/3 1/19/3 19/33/3
f 53/34/12 16/29/12 14/28/12
f 8/35/5 4/11/5 22/36/5
f 12/37/5 8/35/5 24/38/5
f 10/12/5 12/37/5 23/13/5
f 50/39/13 25/25/13 52/40/13
f 3/22/5 7/41/5 25/25/5
f 7/41/5 12/37/5 28/31/5
f 12/37/5 10/12/5 28/31/5
f 41/42/14 19/33/14 17/21/14
f 43/43/15 17/21/15 45/44/15
f 48/45/16 24/38/16 22/36/16
f 47/46/17 20/32/17 41/42/17
f 9/47/18 2/48/18 31/49/18
f 37/50/19 31/49/19 38/1/19
f 11/51/20 40/52/20 35/53/20
f 40/52/21 39/4/21 35/53/21
f 2/54/22 6/55/22 31/49/22
f 31/49/23 35/53/23 36/6/23
f 5/56/24 1/57/24 33/58/24
f 33/58/25 29/59/25 34/14/25
f 1/60/26 9/47/26 29/61/26
f 29/61/19 37/50/19 30/17/19
f 5/62/27 33/58/27 11/51/27
f 33/58/21 34/14/21 40/52/21
f 23/13/28 42/63/28 21/64/28
f 42/65/21 41/66/21 44/67/21
f 21/64/29 44/68/29 22/36/29
f 44/67/23 43/69/23 46/70/23
f 20/32/12 47/46/12 18/71/12
f 47/72/19 48/73/19 45/74/19
f 24/38/30 48/45/30 23/13/30
f 48/73/31 47/72/31 42/65/31
f 15/9/32 55/75/32 13/76/32
f 55/77/21 56/78/21 49/79/21
f 16/29/33 53/34/33 15/9/33
f 53/80/23 54/81/23 55/77/23
f 28/31/16 54/30/16 26/82/16
f 54/83/19 53/84/19 52/85/19
f 13/76/34 49/86/34 14/28/34
f 49/79/31 50/87/31 52/85/31
f 32/2/35 3/88/35 10/3/35
f 12/5/36 7/89/36 36/6/36
f 11/8/3 16/29/3 15/9/3
f 36/6/37 7/90/37 3/10/37
f 21/64/8 4/11/8 23/13/8
f 30/15/38 4/91/38 8/16/38
f 4/92/39 30/17/39 10/3/39
f 39/4/2 34/14/2 12/5/2
f 5/20/3 18/71/3 17/21/3
f 3/22/5 25/25/5 27/23/5
f 50/39/9 56/24/9 25/25/9
f 13/76/3 2/26/3 15/9/3
f 2/26/40 13/76/40 14/28/40
f 6/27/41 14/28/41 16/29/41
f 28/31/42 27/23/42 56/24/42
f 18/71/3 5/20/3 20/32/3
f 9/7/3 19/33/3 20/32/3
f 1/19/3 17/21/3 19/33/3
f 51/93/43 53/34/43 14/28/43
f 4/11/5 21/64/5 22/36/5
f 8/35/5 22/36/5 24/38/5
f 12/37/44 24/38/44 23/13/44
f 25/25/45 26/82/45 52/40/45
f 7/41/5 26/82/5 25/25/5
f 26/82/5 7/41/5 28/31/5
f 10/12/46 27/23/46 28/31/46
f 43/43/14 41/42/14 17/21/14
f 17/21/47 18/71/47 45/44/47
f 46/94/48 48/45/48 22/36/48
f 20/32/17 19/33/17 41/42/17
f 37/50/49 9/47/49 31/49/49
f 31/49/19 32/2/19 38/1/19
f 6/95/50 11/51/50 35/53/50
f 39/4/21 36/6/21 35/53/21
f 6/55/51 35/53/51 31/49/51
f 32/2/23 31/49/23 36/6/23
f 1/57/52 29/59/52 33/58/52
f 29/59/31 30/15/31 34/14/31
f 9/47/49 37/50/49 29/61/49
f 37/50/19 38/1/19 30/17/19
f 33/58/20 40/52/20 11/51/20
f 34/14/21 39/4/21 40/52/21
f 42/63/53 44/68/53 21/64/53
f 41/66/21 43/69/21 44/67/21
f 44/68/29 46/94/29 22/36/29
f 43/69/54 45/96/54 46/70/54
f 47/46/55 45/44/55 18/71/55
f 48/73/19 46/97/19 45/74/19
f 48/45/56 42/63/56 23/13/56
f 47/72/31 41/66/31 42/65/31
f 55/75/32 49/86/32 13/76/32
f 56/78/21 50/87/21 49/79/21
f 53/34/57 55/75/57 15/9/57
f 54/81/23 56/78/23 55/77/23
f 54/30/58 52/40/58 26/82/58
f 53/84/19 51/98/19 52/85/19
f 49/86/59 51/93/59 14/28/59
f 51/98/25 49/79/25 52/85/25
